<?xml version="1.0" standalone="no"?>
<!DOCTYPE svg PUBLIC "-//W3C//DTD SVG 20010904//EN"
 "http://www.w3.org/TR/2001/REC-SVG-20010904/DTD/svg10.dtd">
<svg version="1.0" xmlns="http://www.w3.org/2000/svg"
 width="800.000000pt" height="600.000000pt" viewBox="0 0 800.000000 600.000000"
 preserveAspectRatio="xMidYMid meet" fill="#000000" stroke="#FFFFFF">
<metadata>
Created by potrace 1.16, written by Peter Selinger 2001-2019
</metadata>
<g transform="translate(0.000000,600.000000) scale(0.100000,-0.100000)">
<path d="M2418 3773 l-524 -918 467 -3 468 -2 45 -75 c25 -42 46 -78 46 -80 0
-3 -204 -5 -454 -5 l-455 0 -34 -33 c-61 -57 -62 -130 -2 -195 l33 -37 543 -5
543 -5 53 -85 52 -85 -595 -5 -596 -5 -33 -37 c-60 -65 -59 -138 2 -195 l34
-33 679 0 678 0 56 -92 56 -93 -732 -5 c-817 -6 -767 -1 -802 -75 -31 -64 -10
-139 49 -175 32 -20 48 -20 843 -20 l811 0 171 -280 c95 -154 176 -280 180
-280 4 0 85 126 180 280 l171 280 811 0 c907 0 850 -5 889 72 24 47 24 79 0
126 -37 71 13 66 -799 72 l-732 5 56 93 56 92 679 0 678 0 35 35 c69 69 54
168 -34 221 -8 5 -279 11 -602 14 l-587 5 52 85 53 85 534 5 c294 3 542 9 550
14 88 53 103 152 34 221 l-35 35 -454 0 c-250 0 -455 2 -455 5 0 2 21 38 46
80 l45 75 469 0 468 0 -520 913 c-286 501 -523 916 -527 920 -5 4 -142 -228
-307 -517 -164 -289 -301 -525 -304 -525 -3 0 -103 173 -224 384 -120 212
-222 385 -226 385 -4 0 -106 -173 -226 -385 -121 -211 -221 -384 -224 -384 -3
0 -139 236 -304 524 -164 289 -300 525 -302 525 -2 0 -239 -413 -526 -917z"/>
</g>
</svg>
